<svg xmlns="http://www.w3.org/2000/svg" viewBox="0 0 568.24 187.84"><defs><style>.cls-1{fill:#fff;}</style></defs><title>Strong Logo Working_White</title><g id="Layer_2" data-name="Layer 2"><g id="Layer_1-2" data-name="Layer 1"><path class="cls-1" d="M335.28,74.7c-8.69-15.38-25.46-26.27-44.43-26.27-27.69,0-50.77,23.23-50.77,49.72a48.23,48.23,0,0,0,12.64,32.19,51.11,51.11,0,0,0,38.13,17.15c27.88,0,50.74-23,50.74-49.34A47.35,47.35,0,0,0,335.28,74.7Zm-44.43,69.14c-12,0-19.05-9.74-22.3-24.18a100.49,100.49,0,0,1-2.09-21.51c0-25.2,7.35-45.91,24.39-45.91,14.73,0,22.4,15.56,24.17,36.11q.41,4.75.41,9.8C315.43,123.53,307.86,143.84,290.85,143.84Z"/><path class="cls-1" d="M135.74,56.34v65.42c0,10.66,5.26,15,13.77,15,.4,0,.86,0,1.26,0h8.85c-5.15,6.17-13.41,10.81-24.63,10.81-13.36,0-24-6.19-24-24.92V56.34h-9.71l34.51-23.27V52.29h24.18v4.05Z"/><path class="cls-1" d="M75,69.47c-6.27-4.83-13.47-8.59-20.58-12L41.62,51.09c-12.19-6-21.47-13.93-21.47-26.54,0-12.37,8.32-20.5,20.71-20.5,13.72,0,29.39,10.49,43.36,37.59V12.69C74.62,6.47,57.61,0,44.65,0,20.71,0,0,10.41,0,38.53c0,25.33,20.15,36,40.09,45.72,16.61,7.68,31.77,16.8,31.77,34.43,0,13.2-8.56,24.79-25,24.79S16.07,132.09.75,106.39V139.5a112,112,0,0,0,40.7,8c27.86,0,51.9-11.78,51.9-42.2C93.35,88.41,85.51,77.52,75,69.47Z"/><polygon class="cls-1" points="205.92 69.47 205.92 133.48 214.16 144.6 172.69 144.6 180.79 133.66 181.13 69.47 171.41 69.47 205.92 46.2 205.92 65.8 234.99 46.2 234.99 69.47 205.92 69.47"/><path class="cls-1" d="M454,144.6H412.48l8.36-11.74V79.42c0-9.87-4.22-17.84-15.67-17.84-7.79,0-14.71,4.13-19.4,9.71l0,61.57,8,11.74H352.33l8.7-11.74V69.47h-8.7l32.69-22v19.2l.75.16c6.81-9.26,16.44-18.14,31.77-18.14,17.57,0,28,10.41,28,27.45v56.74Z"/><path class="cls-1" d="M568.24,46.2,540.47,64.94c-6.81-9.88-19.42-16.27-33.65-16.27-22.28,0-38.64,14.43-38.64,33.27,0,12.29,7.5,23.07,19.61,28.65-9.81,2.48-20.55,9.57-20.55,22.65,0,8.66,5,13.86,12.86,16.92-9.81,2.12-18.62,7.68-18.62,17.11,0,12.88,17.85,20.57,43.41,20.57,34.59,0,53.06-13.45,53.63-31.35.57-16.32-15.76-24.57-37.87-25.55l-18.25-.57c-12.31-.59-18.46-2.89-18.46-9.6,0-3.67,1.73-6.56,6.15-9A44.07,44.07,0,0,0,507,114.8c22.11,0,38.81-14.62,38.81-32.86a29.5,29.5,0,0,0-2.75-12.47h25.17Zm-70.06,107,20,.95c16.13.6,25.74,3.28,25.74,12.32S533,181.89,512.2,181.89c-20.57,0-33.46-6.55-33.46-19.82a16,16,0,0,1,4.06-11.13A58.64,58.64,0,0,0,498.18,153.24Zm8.83-41.9c-10.76,0-14.78-11.72-14.78-29.4,0-17.89,3.25-29.8,14.59-29.8S522,64.05,522,81.94C522,99.62,517.78,111.34,507,111.34Z"/></g></g></svg>